<?xml version="1.0" encoding="UTF-8"?>
<svg xmlns="http://www.w3.org/2000/svg" width="1900" height="1120" viewBox="0 0 1900 1120" font-family="Arial, Helvetica, sans-serif">
<rect width="1900" height="1120" fill="#FFFFFF"/>
<rect x="0" y="0" width="1900" height="46" fill="#2E4A6B"/>
<text x="16" y="30" fill="#FFFFFF" font-size="20" font-weight="bold">Stufe 2 - Die neue Prüfungsordnung</text>
<path d="M310.0,175.0 L430.0,175.0" fill="none" stroke="#2E4A6B" stroke-width="1.6"/>
<polygon points="310.0,175.0 318.0,169.0 326.0,175.0 318.0,181.0" fill="#2E4A6B" stroke="#2E4A6B" stroke-width="1.6"/>
<text x="370" y="164" font-size="11" fill="#2E4A6B" text-anchor="middle" font-style="italic">ordnet zu</text>
<text x="336" y="193" font-size="11" fill="#2E4A6B" text-anchor="middle">1</text>
<text x="404" y="193" font-size="11" fill="#2E4A6B" text-anchor="middle">1..*</text>
<path d="M680.0,175.0 L800.0,175.0" fill="none" stroke="#2E4A6B" stroke-width="1.6"/>
<polygon points="680.0,175.0 688.0,169.0 696.0,175.0 688.0,181.0" fill="#FFFFFF" stroke="#2E4A6B" stroke-width="1.6"/>
<text x="740" y="164" font-size="11" fill="#2E4A6B" text-anchor="middle" font-style="italic">betrifft</text>
<text x="706" y="193" font-size="11" fill="#2E4A6B" text-anchor="middle">0..*</text>
<text x="774" y="193" font-size="11" fill="#2E4A6B" text-anchor="middle">1</text>
<path d="M1300.0,160.0 L1050.0,160.0" fill="none" stroke="#2E4A6B" stroke-width="1.6"/>
<text x="1175" y="149" font-size="11" fill="#2E4A6B" text-anchor="middle" font-style="italic">lehrt</text>
<text x="1274" y="178" font-size="11" fill="#2E4A6B" text-anchor="middle">1..*</text>
<text x="1076" y="178" font-size="11" fill="#2E4A6B" text-anchor="middle">0..*</text>
<path d="M1425.0,216.0 L1425.0,450.0 L1050.0,450.0" fill="none" stroke="#2E4A6B" stroke-width="1.6"/>
<text x="1238" y="322" font-size="11" fill="#2E4A6B" text-anchor="middle" font-style="italic">beaufsichtigt</text>
<text x="1416" y="240" font-size="11" fill="#2E4A6B" text-anchor="end">0..1</text>
<text x="1076" y="468" font-size="11" fill="#2E4A6B" text-anchor="middle">0..*</text>
<path d="M925.0,232.0 L925.0,380.0" fill="none" stroke="#2E4A6B" stroke-width="1.6"/>
<polygon points="925.0,232.0 931.0,240.0 925.0,248.0 919.0,240.0" fill="#2E4A6B" stroke="#2E4A6B" stroke-width="1.6"/>
<text x="937" y="310" font-size="11" fill="#2E4A6B" text-anchor="start" font-style="italic">setzt an</text>
<text x="916" y="256" font-size="11" fill="#2E4A6B" text-anchor="end">1</text>
<text x="916" y="356" font-size="11" fill="#2E4A6B" text-anchor="end">1..*</text>
<path d="M185.0,380.0 L185.0,248.0" fill="none" stroke="#2E4A6B" stroke-width="1.6"/>
<text x="197" y="318" font-size="11" fill="#2E4A6B" text-anchor="start" font-style="italic">ist eingeschrieben in</text>
<text x="176" y="356" font-size="11" fill="#2E4A6B" text-anchor="end">0..*</text>
<text x="176" y="272" font-size="11" fill="#2E4A6B" text-anchor="end">1</text>
<path d="M185.0,518.0 L185.0,660.0" fill="none" stroke="#2E4A6B" stroke-width="1.6"/>
<polygon points="185.0,518.0 191.0,526.0 185.0,534.0 179.0,526.0" fill="#2E4A6B" stroke="#2E4A6B" stroke-width="1.6"/>
<text x="197" y="593" font-size="11" fill="#2E4A6B" text-anchor="start" font-style="italic">erbringt</text>
<text x="176" y="542" font-size="11" fill="#2E4A6B" text-anchor="end">1</text>
<text x="176" y="636" font-size="11" fill="#2E4A6B" text-anchor="end">0..*</text>
<path d="M195.0,940.0 L195.0,782.0" fill="none" stroke="#2E4A6B" stroke-width="1.6"/>
<polygon points="195.0,782.0 203.0,798.0 187.0,798.0" fill="#FFFFFF" stroke="#2E4A6B" stroke-width="1.6"/>
<path d="M545.0,940.0 L545.0,870.0 L195.0,870.0 L195.0,782.0" fill="none" stroke="#2E4A6B" stroke-width="1.6"/>
<polygon points="195.0,782.0 203.0,798.0 187.0,798.0" fill="#FFFFFF" stroke="#2E4A6B" stroke-width="1.6"/>
<path d="M670.0,985.0 L720.0,985.0 L720.0,480.0 L800.0,480.0" fill="none" stroke="#2E4A6B" stroke-width="1.6"/>
<polygon points="670.0,985.0 678.0,979.0 686.0,985.0 678.0,991.0" fill="#FFFFFF" stroke="#2E4A6B" stroke-width="1.6"/>
<text x="706" y="590" font-size="11" fill="#2E4A6B" text-anchor="end" font-style="italic">bezieht sich auf</text>
<text x="688" y="972" font-size="11" fill="#2E4A6B" text-anchor="end">0..*</text>
<text x="774" y="498" font-size="11" fill="#2E4A6B" text-anchor="middle">1</text>
<path d="M330.0,993.0 L375.0,993.0 L375.0,90.0 L925.0,90.0 L925.0,110.0" fill="none" stroke="#2E4A6B" stroke-width="1.6"/>
<polygon points="330.0,993.0 338.0,987.0 346.0,993.0 338.0,999.0" fill="#FFFFFF" stroke="#2E4A6B" stroke-width="1.6"/>
<text x="390" y="640" font-size="11" fill="#2E4A6B" text-anchor="start" font-style="italic">wird angerechnet auf</text>
<text x="356" y="1011" font-size="11" fill="#2E4A6B" text-anchor="middle">0..*</text>
<text x="910" y="104" font-size="11" fill="#2E4A6B" text-anchor="end">1</text>
<path d="M875.0,700.0 L875.0,620.0 L925.0,620.0 L925.0,518.0" fill="none" stroke="#2E4A6B" stroke-width="1.6"/>
<polygon points="925.0,518.0 933.0,534.0 917.0,534.0" fill="#FFFFFF" stroke="#2E4A6B" stroke-width="1.6"/>
<path d="M1185.0,700.0 L1185.0,620.0 L925.0,620.0 L925.0,518.0" fill="none" stroke="#2E4A6B" stroke-width="1.6"/>
<polygon points="925.0,518.0 933.0,534.0 917.0,534.0" fill="#FFFFFF" stroke="#2E4A6B" stroke-width="1.6"/>
<path d="M1515.0,700.0 L1515.0,620.0 L925.0,620.0 L925.0,518.0" fill="none" stroke="#2E4A6B" stroke-width="1.6"/>
<polygon points="925.0,518.0 933.0,534.0 917.0,534.0" fill="#FFFFFF" stroke="#2E4A6B" stroke-width="1.6"/>
<path d="M1405.0,950.0 L1405.0,870.0 L1515.0,870.0 L1515.0,790.0" fill="none" stroke="#2E4A6B" stroke-width="1.6"/>
<polygon points="1515.0,790.0 1523.0,806.0 1507.0,806.0" fill="#FFFFFF" stroke="#2E4A6B" stroke-width="1.6"/>
<path d="M1720.0,950.0 L1720.0,870.0 L1515.0,870.0 L1515.0,790.0" fill="none" stroke="#2E4A6B" stroke-width="1.6"/>
<polygon points="1515.0,790.0 1523.0,806.0 1507.0,806.0" fill="#FFFFFF" stroke="#2E4A6B" stroke-width="1.6"/>
<rect x="60" y="110" width="250" height="138" fill="#FFFFFF" stroke="#4A6FA5" stroke-width="1.6"/>
<rect x="60" y="110" width="250" height="30" fill="#DAE8FC" stroke="#4A6FA5" stroke-width="1.6"/>
<text x="185" y="130" font-size="12" font-weight="bold" fill="#12263F" text-anchor="middle">Studiengang</text>
<line x1="60" y1="140" x2="310" y2="140" stroke="#4A6FA5" stroke-width="1.2"/>
<line x1="60" y1="202" x2="310" y2="202" stroke="#4A6FA5" stroke-width="1.2"/>
<text x="67" y="159" font-size="11" fill="#12263F">kürzel</text>
<text x="67" y="175" font-size="11" fill="#12263F">bezeichnung</text>
<text x="67" y="191" font-size="11" fill="#12263F">regelstudienzeit</text>
<text x="67" y="221" font-size="11" fill="#12263F">modulAufnehmen()</text>
<text x="67" y="237" font-size="11" fill="#12263F">studienplanDrucken()</text>
<rect x="430" y="120" width="250" height="106" fill="#FFFFFF" stroke="#4A6FA5" stroke-width="1.6"/>
<rect x="430" y="120" width="250" height="30" fill="#DAE8FC" stroke="#4A6FA5" stroke-width="1.6"/>
<text x="555" y="140" font-size="12" font-weight="bold" fill="#12263F" text-anchor="middle">Modulzuordnung</text>
<line x1="430" y1="150" x2="680" y2="150" stroke="#4A6FA5" stroke-width="1.2"/>
<line x1="430" y1="196" x2="680" y2="196" stroke="#4A6FA5" stroke-width="1.2"/>
<text x="437" y="169" font-size="11" fill="#12263F">art</text>
<text x="437" y="185" font-size="11" fill="#12263F">fachsemester</text>
<text x="437" y="215" font-size="11" fill="#12263F">artÄndern()</text>
<rect x="800" y="110" width="250" height="122" fill="#FFFFFF" stroke="#4A6FA5" stroke-width="1.6"/>
<rect x="800" y="110" width="250" height="30" fill="#DAE8FC" stroke="#4A6FA5" stroke-width="1.6"/>
<text x="925" y="130" font-size="12" font-weight="bold" fill="#12263F" text-anchor="middle">Modul</text>
<line x1="800" y1="140" x2="1050" y2="140" stroke="#4A6FA5" stroke-width="1.2"/>
<line x1="800" y1="202" x2="1050" y2="202" stroke="#4A6FA5" stroke-width="1.2"/>
<text x="807" y="159" font-size="11" fill="#12263F">modulnummer</text>
<text x="807" y="175" font-size="11" fill="#12263F">titel</text>
<text x="807" y="191" font-size="11" fill="#12263F">credits</text>
<text x="807" y="221" font-size="11" fill="#12263F">prüfungAnsetzen()</text>
<rect x="1300" y="110" width="250" height="106" fill="#FFFFFF" stroke="#4A6FA5" stroke-width="1.6"/>
<rect x="1300" y="110" width="250" height="30" fill="#DAE8FC" stroke="#4A6FA5" stroke-width="1.6"/>
<text x="1425" y="130" font-size="12" font-weight="bold" fill="#12263F" text-anchor="middle">Dozent</text>
<line x1="1300" y1="140" x2="1550" y2="140" stroke="#4A6FA5" stroke-width="1.2"/>
<line x1="1300" y1="186" x2="1550" y2="186" stroke="#4A6FA5" stroke-width="1.2"/>
<text x="1307" y="159" font-size="11" fill="#12263F">personalnummer</text>
<text x="1307" y="175" font-size="11" fill="#12263F">name</text>
<text x="1307" y="205" font-size="11" fill="#12263F">noteEintragen()</text>
<rect x="60" y="380" width="250" height="138" fill="#FFFFFF" stroke="#4A6FA5" stroke-width="1.6"/>
<rect x="60" y="380" width="250" height="30" fill="#DAE8FC" stroke="#4A6FA5" stroke-width="1.6"/>
<text x="185" y="400" font-size="12" font-weight="bold" fill="#12263F" text-anchor="middle">Student</text>
<line x1="60" y1="410" x2="310" y2="410" stroke="#4A6FA5" stroke-width="1.2"/>
<line x1="60" y1="472" x2="310" y2="472" stroke="#4A6FA5" stroke-width="1.2"/>
<text x="67" y="429" font-size="11" fill="#12263F">matrikelnummer</text>
<text x="67" y="445" font-size="11" fill="#12263F">name</text>
<text x="67" y="461" font-size="11" fill="#12263F">e-mail</text>
<text x="67" y="491" font-size="11" fill="#12263F">zuPrüfungAnmelden()</text>
<text x="67" y="507" font-size="11" fill="#12263F">notenspiegelAbrufen()</text>
<rect x="800" y="380" width="250" height="138" fill="#FFFFFF" stroke="#4A6FA5" stroke-width="1.6"/>
<rect x="800" y="380" width="250" height="30" fill="#DAE8FC" stroke="#4A6FA5" stroke-width="1.6"/>
<text x="925" y="400" font-size="12" font-weight="bold" fill="#12263F" text-anchor="middle">Prüfung</text>
<line x1="800" y1="410" x2="1050" y2="410" stroke="#4A6FA5" stroke-width="1.2"/>
<line x1="800" y1="472" x2="1050" y2="472" stroke="#4A6FA5" stroke-width="1.2"/>
<text x="807" y="429" font-size="11" fill="#12263F">prüfungsnummer</text>
<text x="807" y="445" font-size="11" fill="#12263F">datum</text>
<text x="807" y="461" font-size="11" fill="#12263F">raum</text>
<text x="807" y="491" font-size="11" fill="#12263F">anmeldungÖffnen()</text>
<text x="807" y="507" font-size="11" fill="#12263F">prüfungAbsagen()</text>
<rect x="60" y="660" width="280" height="122" fill="#FFFFFF" stroke="#4A6FA5" stroke-width="1.6"/>
<rect x="60" y="660" width="280" height="30" fill="#DAE8FC" stroke="#4A6FA5" stroke-width="1.6"/>
<text x="200" y="680" font-size="12" font-weight="bold" fill="#12263F" text-anchor="middle">Leistung</text>
<line x1="60" y1="690" x2="340" y2="690" stroke="#4A6FA5" stroke-width="1.2"/>
<line x1="60" y1="736" x2="340" y2="736" stroke="#4A6FA5" stroke-width="1.2"/>
<text x="67" y="709" font-size="11" fill="#12263F">datum</text>
<text x="67" y="725" font-size="11" fill="#12263F">note</text>
<text x="67" y="755" font-size="11" fill="#12263F">angerechnetesModulErmitteln()</text>
<text x="67" y="771" font-size="11" fill="#12263F">alsBestandenVerbuchen()</text>
<rect x="60" y="940" width="270" height="106" fill="#FFFFFF" stroke="#4A6FA5" stroke-width="1.6"/>
<rect x="60" y="940" width="270" height="30" fill="#DAE8FC" stroke="#4A6FA5" stroke-width="1.6"/>
<text x="195" y="960" font-size="12" font-weight="bold" fill="#12263F" text-anchor="middle">AnerkannteLeistung</text>
<line x1="60" y1="970" x2="330" y2="970" stroke="#4A6FA5" stroke-width="1.2"/>
<line x1="60" y1="1016" x2="330" y2="1016" stroke="#4A6FA5" stroke-width="1.2"/>
<text x="67" y="989" font-size="11" fill="#12263F">hochschule</text>
<text x="67" y="1005" font-size="11" fill="#12263F">externerTitel</text>
<text x="67" y="1035" font-size="11" fill="#12263F">nachweisPrüfen()</text>
<rect x="420" y="940" width="250" height="90" fill="#FFFFFF" stroke="#4A6FA5" stroke-width="1.6"/>
<rect x="420" y="940" width="250" height="30" fill="#DAE8FC" stroke="#4A6FA5" stroke-width="1.6"/>
<text x="545" y="960" font-size="12" font-weight="bold" fill="#12263F" text-anchor="middle">Prüfungsversuch</text>
<line x1="420" y1="970" x2="670" y2="970" stroke="#4A6FA5" stroke-width="1.2"/>
<line x1="420" y1="1000" x2="670" y2="1000" stroke="#4A6FA5" stroke-width="1.2"/>
<text x="427" y="989" font-size="11" fill="#12263F">versuchsnummer</text>
<text x="427" y="1019" font-size="11" fill="#12263F">versuchZurücktreten()</text>
<rect x="760" y="700" width="230" height="90" fill="#FFFFFF" stroke="#4A6FA5" stroke-width="1.6"/>
<rect x="760" y="700" width="230" height="30" fill="#DAE8FC" stroke="#4A6FA5" stroke-width="1.6"/>
<text x="875" y="720" font-size="12" font-weight="bold" fill="#12263F" text-anchor="middle">Klausur</text>
<line x1="760" y1="730" x2="990" y2="730" stroke="#4A6FA5" stroke-width="1.2"/>
<line x1="760" y1="760" x2="990" y2="760" stroke="#4A6FA5" stroke-width="1.2"/>
<text x="767" y="749" font-size="11" fill="#12263F">bearbeitungsdauer</text>
<text x="767" y="779" font-size="11" fill="#12263F">aufsichtEinteilen()</text>
<rect x="1060" y="700" width="250" height="106" fill="#FFFFFF" stroke="#4A6FA5" stroke-width="1.6"/>
<rect x="1060" y="700" width="250" height="30" fill="#DAE8FC" stroke="#4A6FA5" stroke-width="1.6"/>
<text x="1185" y="720" font-size="12" font-weight="bold" fill="#12263F" text-anchor="middle">MündlichePrüfung</text>
<line x1="1060" y1="730" x2="1310" y2="730" stroke="#4A6FA5" stroke-width="1.2"/>
<line x1="1060" y1="776" x2="1310" y2="776" stroke="#4A6FA5" stroke-width="1.2"/>
<text x="1067" y="749" font-size="11" fill="#12263F">dauer</text>
<text x="1067" y="765" font-size="11" fill="#12263F">beisitzer</text>
<text x="1067" y="795" font-size="11" fill="#12263F">protokollAnlegen()</text>
<rect x="1400" y="700" width="230" height="90" fill="#FFFFFF" stroke="#4A6FA5" stroke-width="1.6"/>
<rect x="1400" y="700" width="230" height="30" fill="#DAE8FC" stroke="#4A6FA5" stroke-width="1.6"/>
<text x="1515" y="720" font-size="12" font-weight="bold" fill="#12263F" text-anchor="middle">Präsentation</text>
<line x1="1400" y1="730" x2="1630" y2="730" stroke="#4A6FA5" stroke-width="1.2"/>
<line x1="1400" y1="760" x2="1630" y2="760" stroke="#4A6FA5" stroke-width="1.2"/>
<text x="1407" y="749" font-size="11" fill="#12263F">vortragsdauer</text>
<text x="1407" y="779" font-size="11" fill="#12263F">technikPrüfen()</text>
<rect x="1280" y="950" width="250" height="90" fill="#FFFFFF" stroke="#4A6FA5" stroke-width="1.6"/>
<rect x="1280" y="950" width="250" height="30" fill="#DAE8FC" stroke="#4A6FA5" stroke-width="1.6"/>
<text x="1405" y="970" font-size="12" font-weight="bold" fill="#12263F" text-anchor="middle">Einzelpräsentation</text>
<line x1="1280" y1="980" x2="1530" y2="980" stroke="#4A6FA5" stroke-width="1.2"/>
<line x1="1280" y1="1010" x2="1530" y2="1010" stroke="#4A6FA5" stroke-width="1.2"/>
<text x="1287" y="999" font-size="11" fill="#12263F">vortragstermin</text>
<text x="1287" y="1029" font-size="11" fill="#12263F">terminVerschieben()</text>
<rect x="1590" y="950" width="260" height="90" fill="#FFFFFF" stroke="#4A6FA5" stroke-width="1.6"/>
<rect x="1590" y="950" width="260" height="30" fill="#DAE8FC" stroke="#4A6FA5" stroke-width="1.6"/>
<text x="1720" y="970" font-size="12" font-weight="bold" fill="#12263F" text-anchor="middle">Gruppenpräsentation</text>
<line x1="1590" y1="980" x2="1850" y2="980" stroke="#4A6FA5" stroke-width="1.2"/>
<line x1="1590" y1="1010" x2="1850" y2="1010" stroke="#4A6FA5" stroke-width="1.2"/>
<text x="1597" y="999" font-size="11" fill="#12263F">mitgliederzahl</text>
<text x="1597" y="1029" font-size="11" fill="#12263F">gruppeEinteilen()</text>
<path d="M700,860 L1246,860 L1260,874 L1260,944 L700,944 Z" fill="#FFFFFF" stroke="#2E4A6B" stroke-width="1.4"/>
<path d="M1246,860 L1246,874 L1260,874" fill="none" stroke="#2E4A6B" stroke-width="1.4"/>
<text x="707" y="879" font-size="11" fill="#2E4A6B">Zielkonflikt Gruppenpräsentation, Variante B:</text>
<text x="707" y="895" font-size="11" fill="#2E4A6B">je Mitglied eine eigene Leistung, alle beziehen sich</text>
<text x="707" y="911" font-size="11" fill="#2E4A6B">auf dieselbe Gruppenpräsentation. Die Komposition</text>
<text x="707" y="927" font-size="11" fill="#2E4A6B">zu Student bleibt damit unverändert.</text>
</svg>